<svg xmlns="http://www.w3.org/2000/svg" viewBox="0 0 512 512" width="512" height="512">
  <defs>
    <linearGradient id="bg" x1="0" y1="0" x2="0" y2="1">
      <stop offset="0" stop-color="#243a6b"/>
      <stop offset="1" stop-color="#0b1020"/>
    </linearGradient>
  </defs>
  <rect width="512" height="512" rx="112" fill="url(#bg)"/>
  <!-- drift skid trail -->
  <path d="M64 392 Q 150 300 256 356 T 452 300" fill="none" stroke="#33e0a1" stroke-width="26" stroke-linecap="round" opacity="0.9"/>
  <path d="M88 410 Q 170 322 270 376 T 456 326" fill="none" stroke="#33e0a1" stroke-width="14" stroke-linecap="round" opacity="0.45"/>
  <!-- top-down car, drifting at an angle -->
  <g transform="translate(256 220) rotate(20)">
    <rect x="-78" y="-46" width="40" height="22" rx="7" fill="#15171c"/>
    <rect x="38" y="-46" width="40" height="22" rx="7" fill="#15171c"/>
    <rect x="-78" y="24" width="40" height="22" rx="7" fill="#15171c"/>
    <rect x="38" y="24" width="40" height="22" rx="7" fill="#15171c"/>
    <rect x="-66" y="-58" width="132" height="116" rx="30" fill="#e8463a"/>
    <rect x="-44" y="-34" width="88" height="68" rx="18" fill="#1d2230"/>
    <rect x="-30" y="-50" width="60" height="14" rx="6" fill="#ffe7a8"/>
  </g>
</svg>
